solid ASCII
  facet normal 5.000000e-01 5.000000e-01 -7.071068e-01
    outer loop
      vertex   5.436054e+01 5.580380e+01 -1.587500e+00
      vertex   5.465513e+01 5.651500e+01 -8.763000e-01
      vertex   5.834380e+01 5.182054e+01 -1.587500e+00
    endloop
  endfacet
  facet normal 5.000000e-01 5.000000e-01 -7.071068e-01
    outer loop
      vertex   5.834380e+01 5.182054e+01 -1.587500e+00
      vertex   5.465513e+01 5.651500e+01 -8.763000e-01
      vertex   5.905500e+01 5.211513e+01 -8.763000e-01
    endloop
  endfacet
  facet normal 0.000000e+00 7.071068e-01 -7.071068e-01
    outer loop
      vertex   5.436054e+01 5.580380e+01 -1.587500e+00
      vertex   1.519461e+00 5.580380e+01 -1.587500e+00
      vertex   5.465513e+01 5.651500e+01 -8.763000e-01
    endloop
  endfacet
  facet normal 0.000000e+00 7.071068e-01 -7.071068e-01
    outer loop
      vertex   5.465513e+01 5.651500e+01 -8.763000e-01
      vertex   1.519461e+00 5.580380e+01 -1.587500e+00
      vertex   1.224872e+00 5.651500e+01 -8.763000e-01
    endloop
  endfacet
  facet normal -5.000000e-01 5.000000e-01 -7.071068e-01
    outer loop
      vertex   1.519461e+00 5.580380e+01 -1.587500e+00
      vertex   -2.463800e+00 5.182054e+01 -1.587500e+00
      vertex   1.224872e+00 5.651500e+01 -8.763000e-01
    endloop
  endfacet
  facet normal -5.000000e-01 5.000000e-01 -7.071068e-01
    outer loop
      vertex   1.224872e+00 5.651500e+01 -8.763000e-01
      vertex   -2.463800e+00 5.182054e+01 -1.587500e+00
      vertex   -3.175000e+00 5.211513e+01 -8.763000e-01
    endloop
  endfacet
  facet normal -7.071068e-01 3.745667e-17 -7.071068e-01
    outer loop
      vertex   -2.463800e+00 1.519461e+00 -1.587500e+00
      vertex   -3.175000e+00 1.224872e+00 -8.763000e-01
      vertex   -2.463800e+00 5.182054e+01 -1.587500e+00
    endloop
  endfacet
  facet normal -7.071068e-01 4.338093e-17 -7.071068e-01
    outer loop
      vertex   -2.463800e+00 5.182054e+01 -1.587500e+00
      vertex   -3.175000e+00 1.224872e+00 -8.763000e-01
      vertex   -3.175000e+00 5.211513e+01 -8.763000e-01
    endloop
  endfacet
  facet normal -5.000000e-01 -5.000000e-01 -7.071068e-01
    outer loop
      vertex   1.519461e+00 -2.463800e+00 -1.587500e+00
      vertex   1.224872e+00 -3.175000e+00 -8.763000e-01
      vertex   -2.463800e+00 1.519461e+00 -1.587500e+00
    endloop
  endfacet
  facet normal -5.000000e-01 -5.000000e-01 -7.071068e-01
    outer loop
      vertex   -2.463800e+00 1.519461e+00 -1.587500e+00
      vertex   1.224872e+00 -3.175000e+00 -8.763000e-01
      vertex   -3.175000e+00 1.224872e+00 -8.763000e-01
    endloop
  endfacet
  facet normal -3.526300e-17 -7.071068e-01 -7.071068e-01
    outer loop
      vertex   5.465513e+01 -3.175000e+00 -8.763000e-01
      vertex   1.224872e+00 -3.175000e+00 -8.763000e-01
      vertex   5.436054e+01 -2.463800e+00 -1.587500e+00
    endloop
  endfacet
  facet normal -4.754157e-17 -7.071068e-01 -7.071068e-01
    outer loop
      vertex   5.436054e+01 -2.463800e+00 -1.587500e+00
      vertex   1.224872e+00 -3.175000e+00 -8.763000e-01
      vertex   1.519461e+00 -2.463800e+00 -1.587500e+00
    endloop
  endfacet
  facet normal 5.000000e-01 -5.000000e-01 -7.071068e-01
    outer loop
      vertex   5.905500e+01 1.224872e+00 -8.763000e-01
      vertex   5.465513e+01 -3.175000e+00 -8.763000e-01
      vertex   5.834380e+01 1.519461e+00 -1.587500e+00
    endloop
  endfacet
  facet normal 5.000000e-01 -5.000000e-01 -7.071068e-01
    outer loop
      vertex   5.834380e+01 1.519461e+00 -1.587500e+00
      vertex   5.465513e+01 -3.175000e+00 -8.763000e-01
      vertex   5.436054e+01 -2.463800e+00 -1.587500e+00
    endloop
  endfacet
  facet normal 7.071068e-01 -1.974561e-16 -7.071068e-01
    outer loop
      vertex   5.905500e+01 5.211513e+01 -8.763000e-01
      vertex   5.905500e+01 1.224872e+00 -8.763000e-01
      vertex   5.834380e+01 5.182054e+01 -1.587500e+00
    endloop
  endfacet
  facet normal 7.071068e-01 -1.997689e-16 -7.071068e-01
    outer loop
      vertex   5.834380e+01 5.182054e+01 -1.587500e+00
      vertex   5.905500e+01 1.224872e+00 -8.763000e-01
      vertex   5.834380e+01 1.519461e+00 -1.587500e+00
    endloop
  endfacet
  facet normal -4.986941e-17 -1.000000e+00 0.000000e+00
    outer loop
      vertex   1.224872e+00 -3.175000e+00 -8.763000e-01
      vertex   5.465513e+01 -3.175000e+00 -8.763000e-01
      vertex   1.224872e+00 -3.175000e+00 6.857800e+00
    endloop
  endfacet
  facet normal -4.986941e-17 -1.000000e+00 0.000000e+00
    outer loop
      vertex   1.224872e+00 -3.175000e+00 6.857800e+00
      vertex   5.465513e+01 -3.175000e+00 -8.763000e-01
      vertex   5.465513e+01 -3.175000e+00 6.857800e+00
    endloop
  endfacet
  facet normal 7.071068e-01 -7.071068e-01 0.000000e+00
    outer loop
      vertex   5.465513e+01 -3.175000e+00 -8.763000e-01
      vertex   5.905500e+01 1.224872e+00 -8.763000e-01
      vertex   5.465513e+01 -3.175000e+00 6.857800e+00
    endloop
  endfacet
  facet normal 7.071068e-01 -7.071068e-01 0.000000e+00
    outer loop
      vertex   5.465513e+01 -3.175000e+00 6.857800e+00
      vertex   5.905500e+01 1.224872e+00 -8.763000e-01
      vertex   5.905500e+01 1.224872e+00 6.857800e+00
    endloop
  endfacet
  facet normal 1.000000e+00 -1.392577e-15 0.000000e+00
    outer loop
      vertex   5.905500e+01 1.224872e+00 6.857800e+00
      vertex   5.905500e+01 1.224872e+00 -8.763000e-01
      vertex   5.905500e+01 1.142959e+01 0.000000e+00
    endloop
  endfacet
  facet normal 1.000000e+00 -2.792451e-16 -1.296501e-14
    outer loop
      vertex   5.905500e+01 1.142959e+01 0.000000e+00
      vertex   5.905500e+01 1.224872e+00 -8.763000e-01
      vertex   5.905500e+01 5.211513e+01 -8.763000e-01
    endloop
  endfacet
  facet normal 1.000000e+00 -0.000000e+00 0.000000e+00
    outer loop
      vertex   5.905500e+01 1.142959e+01 0.000000e+00
      vertex   5.905500e+01 5.211513e+01 -8.763000e-01
      vertex   5.905500e+01 4.191041e+01 0.000000e+00
    endloop
  endfacet
  facet normal 1.000000e+00 -0.000000e+00 0.000000e+00
    outer loop
      vertex   5.905500e+01 4.191041e+01 0.000000e+00
      vertex   5.905500e+01 5.211513e+01 -8.763000e-01
      vertex   5.905500e+01 5.211513e+01 6.857800e+00
    endloop
  endfacet
  facet normal 1.000000e+00 0.000000e+00 0.000000e+00
    outer loop
      vertex   5.905500e+01 4.191041e+01 0.000000e+00
      vertex   5.905500e+01 5.211513e+01 6.857800e+00
      vertex   5.905500e+01 4.191041e+01 6.857800e+00
    endloop
  endfacet
  facet normal 1.000000e+00 -1.392577e-15 0.000000e+00
    outer loop
      vertex   5.905500e+01 1.142959e+01 0.000000e+00
      vertex   5.905500e+01 1.142959e+01 6.857800e+00
      vertex   5.905500e+01 1.224872e+00 6.857800e+00
    endloop
  endfacet
  facet normal 7.071068e-01 7.071068e-01 -0.000000e+00
    outer loop
      vertex   5.905500e+01 5.211513e+01 -8.763000e-01
      vertex   5.465513e+01 5.651500e+01 -8.763000e-01
      vertex   5.905500e+01 5.211513e+01 6.857800e+00
    endloop
  endfacet
  facet normal 7.071068e-01 7.071068e-01 0.000000e+00
    outer loop
      vertex   5.905500e+01 5.211513e+01 6.857800e+00
      vertex   5.465513e+01 5.651500e+01 -8.763000e-01
      vertex   5.465513e+01 5.651500e+01 6.857800e+00
    endloop
  endfacet
  facet normal 0.000000e+00 -0.000000e+00 -1.000000e+00
    outer loop
      vertex   1.519461e+00 5.580380e+01 -1.587500e+00
      vertex   5.436054e+01 5.580380e+01 -1.587500e+00
      vertex   -2.463800e+00 5.182054e+01 -1.587500e+00
    endloop
  endfacet
  facet normal 0.000000e+00 0.000000e+00 -1.000000e+00
    outer loop
      vertex   -2.463800e+00 5.182054e+01 -1.587500e+00
      vertex   5.436054e+01 5.580380e+01 -1.587500e+00
      vertex   5.834380e+01 5.182054e+01 -1.587500e+00
    endloop
  endfacet
  facet normal 0.000000e+00 -0.000000e+00 -1.000000e+00
    outer loop
      vertex   -2.463800e+00 5.182054e+01 -1.587500e+00
      vertex   5.834380e+01 5.182054e+01 -1.587500e+00
      vertex   -2.463800e+00 1.519461e+00 -1.587500e+00
    endloop
  endfacet
  facet normal 0.000000e+00 0.000000e+00 -1.000000e+00
    outer loop
      vertex   -2.463800e+00 1.519461e+00 -1.587500e+00
      vertex   5.834380e+01 5.182054e+01 -1.587500e+00
      vertex   5.834380e+01 1.519461e+00 -1.587500e+00
    endloop
  endfacet
  facet normal 0.000000e+00 0.000000e+00 -1.000000e+00
    outer loop
      vertex   -2.463800e+00 1.519461e+00 -1.587500e+00
      vertex   5.834380e+01 1.519461e+00 -1.587500e+00
      vertex   1.519461e+00 -2.463800e+00 -1.587500e+00
    endloop
  endfacet
  facet normal 0.000000e+00 0.000000e+00 -1.000000e+00
    outer loop
      vertex   1.519461e+00 -2.463800e+00 -1.587500e+00
      vertex   5.834380e+01 1.519461e+00 -1.587500e+00
      vertex   5.436054e+01 -2.463800e+00 -1.587500e+00
    endloop
  endfacet
  facet normal -7.071068e-01 9.231570e-17 7.071068e-01
    outer loop
      vertex   -3.175000e+00 5.211513e+01 6.857800e+00
      vertex   -3.175000e+00 4.191041e+01 6.857800e+00
      vertex   -2.082800e+00 5.166272e+01 7.950000e+00
    endloop
  endfacet
  facet normal -7.071068e-01 -1.609970e-16 7.071068e-01
    outer loop
      vertex   -2.082800e+00 5.166272e+01 7.950000e+00
      vertex   -3.175000e+00 4.191041e+01 6.857800e+00
      vertex   -2.082800e+00 4.191041e+01 7.950000e+00
    endloop
  endfacet
  facet normal -5.000000e-01 5.000000e-01 7.071068e-01
    outer loop
      vertex   1.677276e+00 5.542280e+01 7.950000e+00
      vertex   1.224872e+00 5.651500e+01 6.857800e+00
      vertex   -2.082800e+00 5.166272e+01 7.950000e+00
    endloop
  endfacet
  facet normal -5.000000e-01 5.000000e-01 7.071068e-01
    outer loop
      vertex   -2.082800e+00 5.166272e+01 7.950000e+00
      vertex   1.224872e+00 5.651500e+01 6.857800e+00
      vertex   -3.175000e+00 5.211513e+01 6.857800e+00
    endloop
  endfacet
  facet normal -9.565451e-17 7.071068e-01 7.071068e-01
    outer loop
      vertex   1.677276e+00 5.542280e+01 7.950000e+00
      vertex   5.420272e+01 5.542280e+01 7.950000e+00
      vertex   1.224872e+00 5.651500e+01 6.857800e+00
    endloop
  endfacet
  facet normal -0.000000e+00 7.071068e-01 7.071068e-01
    outer loop
      vertex   1.224872e+00 5.651500e+01 6.857800e+00
      vertex   5.420272e+01 5.542280e+01 7.950000e+00
      vertex   5.465513e+01 5.651500e+01 6.857800e+00
    endloop
  endfacet
  facet normal 5.000000e-01 5.000000e-01 7.071068e-01
    outer loop
      vertex   5.420272e+01 5.542280e+01 7.950000e+00
      vertex   5.796280e+01 5.166272e+01 7.950000e+00
      vertex   5.465513e+01 5.651500e+01 6.857800e+00
    endloop
  endfacet
  facet normal 5.000000e-01 5.000000e-01 7.071068e-01
    outer loop
      vertex   5.465513e+01 5.651500e+01 6.857800e+00
      vertex   5.796280e+01 5.166272e+01 7.950000e+00
      vertex   5.905500e+01 5.211513e+01 6.857800e+00
    endloop
  endfacet
  facet normal 7.071068e-01 -0.000000e+00 7.071068e-01
    outer loop
      vertex   5.796280e+01 4.191041e+01 7.950000e+00
      vertex   5.905500e+01 4.191041e+01 6.857800e+00
      vertex   5.796280e+01 5.166272e+01 7.950000e+00
    endloop
  endfacet
  facet normal 7.071068e-01 0.000000e+00 7.071068e-01
    outer loop
      vertex   5.796280e+01 5.166272e+01 7.950000e+00
      vertex   5.905500e+01 4.191041e+01 6.857800e+00
      vertex   5.905500e+01 5.211513e+01 6.857800e+00
    endloop
  endfacet
  facet normal 0.000000e+00 -1.000000e+00 0.000000e+00
    outer loop
      vertex   5.905500e+01 4.191041e+01 0.000000e+00
      vertex   5.905500e+01 4.191041e+01 6.857800e+00
      vertex   5.613400e+01 4.191041e+01 6.350000e+00
    endloop
  endfacet
  facet normal -9.634708e-16 -1.000000e+00 5.542139e-15
    outer loop
      vertex   5.613400e+01 4.191041e+01 6.350000e+00
      vertex   5.905500e+01 4.191041e+01 6.857800e+00
      vertex   5.796280e+01 4.191041e+01 7.950000e+00
    endloop
  endfacet
  facet normal 0.000000e+00 -1.000000e+00 4.440892e-15
    outer loop
      vertex   5.613400e+01 4.191041e+01 6.350000e+00
      vertex   5.796280e+01 4.191041e+01 7.950000e+00
      vertex   5.613400e+01 4.191041e+01 7.950000e+00
    endloop
  endfacet
  facet normal 0.000000e+00 -1.000000e+00 0.000000e+00
    outer loop
      vertex   5.429250e+01 4.191041e+01 6.350000e+00
      vertex   5.429250e+01 4.191041e+01 0.000000e+00
      vertex   5.613400e+01 4.191041e+01 6.350000e+00
    endloop
  endfacet
  facet normal 0.000000e+00 -1.000000e+00 -0.000000e+00
    outer loop
      vertex   5.613400e+01 4.191041e+01 6.350000e+00
      vertex   5.429250e+01 4.191041e+01 0.000000e+00
      vertex   5.905500e+01 4.191041e+01 0.000000e+00
    endloop
  endfacet
  facet normal 0.000000e+00 -0.000000e+00 1.000000e+00
    outer loop
      vertex   5.613400e+01 4.191041e+01 7.950000e+00
      vertex   5.796280e+01 4.191041e+01 7.950000e+00
      vertex   5.613400e+01 5.090521e+01 7.950000e+00
    endloop
  endfacet
  facet normal -0.000000e+00 0.000000e+00 1.000000e+00
    outer loop
      vertex   5.613400e+01 5.090521e+01 7.950000e+00
      vertex   5.796280e+01 4.191041e+01 7.950000e+00
      vertex   5.796280e+01 5.166272e+01 7.950000e+00
    endloop
  endfacet
  facet normal 0.000000e+00 -0.000000e+00 1.000000e+00
    outer loop
      vertex   5.613400e+01 5.090521e+01 7.950000e+00
      vertex   5.796280e+01 5.166272e+01 7.950000e+00
      vertex   5.344521e+01 5.359400e+01 7.950000e+00
    endloop
  endfacet
  facet normal -0.000000e+00 0.000000e+00 1.000000e+00
    outer loop
      vertex   5.344521e+01 5.359400e+01 7.950000e+00
      vertex   5.796280e+01 5.166272e+01 7.950000e+00
      vertex   5.420272e+01 5.542280e+01 7.950000e+00
    endloop
  endfacet
  facet normal 0.000000e+00 -0.000000e+00 1.000000e+00
    outer loop
      vertex   5.344521e+01 5.359400e+01 7.950000e+00
      vertex   5.420272e+01 5.542280e+01 7.950000e+00
      vertex   1.677276e+00 5.542280e+01 7.950000e+00
    endloop
  endfacet
  facet normal 0.000000e+00 0.000000e+00 1.000000e+00
    outer loop
      vertex   5.344521e+01 5.359400e+01 7.950000e+00
      vertex   1.677276e+00 5.542280e+01 7.950000e+00
      vertex   2.434790e+00 5.359400e+01 7.950000e+00
    endloop
  endfacet
  facet normal 0.000000e+00 0.000000e+00 1.000000e+00
    outer loop
      vertex   2.434790e+00 5.359400e+01 7.950000e+00
      vertex   1.677276e+00 5.542280e+01 7.950000e+00
      vertex   -2.082800e+00 5.166272e+01 7.950000e+00
    endloop
  endfacet
  facet normal 0.000000e+00 0.000000e+00 1.000000e+00
    outer loop
      vertex   2.434790e+00 5.359400e+01 7.950000e+00
      vertex   -2.082800e+00 5.166272e+01 7.950000e+00
      vertex   -2.540000e-01 5.090521e+01 7.950000e+00
    endloop
  endfacet
  facet normal 0.000000e+00 0.000000e+00 1.000000e+00
    outer loop
      vertex   -2.540000e-01 5.090521e+01 7.950000e+00
      vertex   -2.082800e+00 5.166272e+01 7.950000e+00
      vertex   -2.082800e+00 4.191041e+01 7.950000e+00
    endloop
  endfacet
  facet normal 0.000000e+00 0.000000e+00 1.000000e+00
    outer loop
      vertex   -2.540000e-01 5.090521e+01 7.950000e+00
      vertex   -2.082800e+00 4.191041e+01 7.950000e+00
      vertex   -2.540000e-01 4.191041e+01 7.950000e+00
    endloop
  endfacet
  facet normal 7.071068e-01 -9.847008e-16 7.071068e-01
    outer loop
      vertex   5.905500e+01 1.224872e+00 6.857800e+00
      vertex   5.905500e+01 1.142959e+01 6.857800e+00
      vertex   5.796280e+01 1.677276e+00 7.950000e+00
    endloop
  endfacet
  facet normal 7.071068e-01 -0.000000e+00 7.071068e-01
    outer loop
      vertex   5.796280e+01 1.677276e+00 7.950000e+00
      vertex   5.905500e+01 1.142959e+01 6.857800e+00
      vertex   5.796280e+01 1.142959e+01 7.950000e+00
    endloop
  endfacet
  facet normal 5.000000e-01 -5.000000e-01 7.071068e-01
    outer loop
      vertex   5.420272e+01 -2.082800e+00 7.950000e+00
      vertex   5.465513e+01 -3.175000e+00 6.857800e+00
      vertex   5.796280e+01 1.677276e+00 7.950000e+00
    endloop
  endfacet
  facet normal 5.000000e-01 -5.000000e-01 7.071068e-01
    outer loop
      vertex   5.796280e+01 1.677276e+00 7.950000e+00
      vertex   5.465513e+01 -3.175000e+00 6.857800e+00
      vertex   5.905500e+01 1.224872e+00 6.857800e+00
    endloop
  endfacet
  facet normal -7.174088e-17 -7.071068e-01 7.071068e-01
    outer loop
      vertex   5.420272e+01 -2.082800e+00 7.950000e+00
      vertex   1.677276e+00 -2.082800e+00 7.950000e+00
      vertex   5.465513e+01 -3.175000e+00 6.857800e+00
    endloop
  endfacet
  facet normal -3.526300e-17 -7.071068e-01 7.071068e-01
    outer loop
      vertex   5.465513e+01 -3.175000e+00 6.857800e+00
      vertex   1.677276e+00 -2.082800e+00 7.950000e+00
      vertex   1.224872e+00 -3.175000e+00 6.857800e+00
    endloop
  endfacet
  facet normal -5.000000e-01 -5.000000e-01 7.071068e-01
    outer loop
      vertex   1.677276e+00 -2.082800e+00 7.950000e+00
      vertex   -2.082800e+00 1.677276e+00 7.950000e+00
      vertex   1.224872e+00 -3.175000e+00 6.857800e+00
    endloop
  endfacet
  facet normal -5.000000e-01 -5.000000e-01 7.071068e-01
    outer loop
      vertex   1.224872e+00 -3.175000e+00 6.857800e+00
      vertex   -2.082800e+00 1.677276e+00 7.950000e+00
      vertex   -3.175000e+00 1.224872e+00 6.857800e+00
    endloop
  endfacet
  facet normal -7.071068e-01 3.219939e-17 7.071068e-01
    outer loop
      vertex   -2.082800e+00 1.142959e+01 7.950000e+00
      vertex   -3.175000e+00 1.142959e+01 6.857800e+00
      vertex   -2.082800e+00 1.677276e+00 7.950000e+00
    endloop
  endfacet
  facet normal -7.071068e-01 -5.634847e-17 7.071068e-01
    outer loop
      vertex   -2.082800e+00 1.677276e+00 7.950000e+00
      vertex   -3.175000e+00 1.142959e+01 6.857800e+00
      vertex   -3.175000e+00 1.224872e+00 6.857800e+00
    endloop
  endfacet
  facet normal 0.000000e+00 1.000000e+00 0.000000e+00
    outer loop
      vertex   -3.175000e+00 1.142959e+01 0.000000e+00
      vertex   -3.175000e+00 1.142959e+01 6.857800e+00
      vertex   -2.540000e-01 1.142959e+01 6.350000e+00
    endloop
  endfacet
  facet normal 0.000000e+00 1.000000e+00 0.000000e+00
    outer loop
      vertex   -2.540000e-01 1.142959e+01 6.350000e+00
      vertex   -3.175000e+00 1.142959e+01 6.857800e+00
      vertex   -2.082800e+00 1.142959e+01 7.950000e+00
    endloop
  endfacet
  facet normal 0.000000e+00 1.000000e+00 0.000000e+00
    outer loop
      vertex   -2.540000e-01 1.142959e+01 6.350000e+00
      vertex   -2.082800e+00 1.142959e+01 7.950000e+00
      vertex   -2.540000e-01 1.142959e+01 7.950000e+00
    endloop
  endfacet
  facet normal 0.000000e+00 1.000000e+00 0.000000e+00
    outer loop
      vertex   1.587500e+00 1.142959e+01 6.350000e+00
      vertex   1.587500e+00 1.142959e+01 0.000000e+00
      vertex   -2.540000e-01 1.142959e+01 6.350000e+00
    endloop
  endfacet
  facet normal 0.000000e+00 1.000000e+00 0.000000e+00
    outer loop
      vertex   -2.540000e-01 1.142959e+01 6.350000e+00
      vertex   1.587500e+00 1.142959e+01 0.000000e+00
      vertex   -3.175000e+00 1.142959e+01 0.000000e+00
    endloop
  endfacet
  facet normal 0.000000e+00 0.000000e+00 1.000000e+00
    outer loop
      vertex   -2.540000e-01 1.142959e+01 7.950000e+00
      vertex   -2.082800e+00 1.142959e+01 7.950000e+00
      vertex   -2.540000e-01 2.434790e+00 7.950000e+00
    endloop
  endfacet
  facet normal 0.000000e+00 0.000000e+00 1.000000e+00
    outer loop
      vertex   -2.540000e-01 2.434790e+00 7.950000e+00
      vertex   -2.082800e+00 1.142959e+01 7.950000e+00
      vertex   -2.082800e+00 1.677276e+00 7.950000e+00
    endloop
  endfacet
  facet normal 0.000000e+00 0.000000e+00 1.000000e+00
    outer loop
      vertex   -2.540000e-01 2.434790e+00 7.950000e+00
      vertex   -2.082800e+00 1.677276e+00 7.950000e+00
      vertex   2.434790e+00 -2.540000e-01 7.950000e+00
    endloop
  endfacet
  facet normal 0.000000e+00 0.000000e+00 1.000000e+00
    outer loop
      vertex   2.434790e+00 -2.540000e-01 7.950000e+00
      vertex   -2.082800e+00 1.677276e+00 7.950000e+00
      vertex   1.677276e+00 -2.082800e+00 7.950000e+00
    endloop
  endfacet
  facet normal 0.000000e+00 0.000000e+00 1.000000e+00
    outer loop
      vertex   2.434790e+00 -2.540000e-01 7.950000e+00
      vertex   1.677276e+00 -2.082800e+00 7.950000e+00
      vertex   5.420272e+01 -2.082800e+00 7.950000e+00
    endloop
  endfacet
  facet normal -0.000000e+00 0.000000e+00 1.000000e+00
    outer loop
      vertex   2.434790e+00 -2.540000e-01 7.950000e+00
      vertex   5.420272e+01 -2.082800e+00 7.950000e+00
      vertex   5.344521e+01 -2.540000e-01 7.950000e+00
    endloop
  endfacet
  facet normal -0.000000e+00 0.000000e+00 1.000000e+00
    outer loop
      vertex   5.344521e+01 -2.540000e-01 7.950000e+00
      vertex   5.420272e+01 -2.082800e+00 7.950000e+00
      vertex   5.796280e+01 1.677276e+00 7.950000e+00
    endloop
  endfacet
  facet normal 0.000000e+00 0.000000e+00 1.000000e+00
    outer loop
      vertex   5.344521e+01 -2.540000e-01 7.950000e+00
      vertex   5.796280e+01 1.677276e+00 7.950000e+00
      vertex   5.613400e+01 2.434790e+00 7.950000e+00
    endloop
  endfacet
  facet normal -0.000000e+00 0.000000e+00 1.000000e+00
    outer loop
      vertex   5.613400e+01 2.434790e+00 7.950000e+00
      vertex   5.796280e+01 1.677276e+00 7.950000e+00
      vertex   5.796280e+01 1.142959e+01 7.950000e+00
    endloop
  endfacet
  facet normal 0.000000e+00 0.000000e+00 1.000000e+00
    outer loop
      vertex   5.613400e+01 2.434790e+00 7.950000e+00
      vertex   5.796280e+01 1.142959e+01 7.950000e+00
      vertex   5.613400e+01 1.142959e+01 7.950000e+00
    endloop
  endfacet
  facet normal -7.071068e-01 -7.071068e-01 0.000000e+00
    outer loop
      vertex   5.344521e+01 5.359400e+01 6.350000e+00
      vertex   5.613400e+01 5.090521e+01 6.350000e+00
      vertex   5.344521e+01 5.359400e+01 7.950000e+00
    endloop
  endfacet
  facet normal -7.071068e-01 -7.071068e-01 0.000000e+00
    outer loop
      vertex   5.344521e+01 5.359400e+01 7.950000e+00
      vertex   5.613400e+01 5.090521e+01 6.350000e+00
      vertex   5.613400e+01 5.090521e+01 7.950000e+00
    endloop
  endfacet
  facet normal 0.000000e+00 -1.000000e+00 0.000000e+00
    outer loop
      vertex   2.434790e+00 5.359400e+01 6.350000e+00
      vertex   5.344521e+01 5.359400e+01 6.350000e+00
      vertex   2.434790e+00 5.359400e+01 7.950000e+00
    endloop
  endfacet
  facet normal 0.000000e+00 -1.000000e+00 0.000000e+00
    outer loop
      vertex   2.434790e+00 5.359400e+01 7.950000e+00
      vertex   5.344521e+01 5.359400e+01 6.350000e+00
      vertex   5.344521e+01 5.359400e+01 7.950000e+00
    endloop
  endfacet
  facet normal 7.071068e-01 -7.071068e-01 3.140185e-15
    outer loop
      vertex   -2.540000e-01 5.090521e+01 6.350000e+00
      vertex   2.434790e+00 5.359400e+01 6.350000e+00
      vertex   -2.540000e-01 5.090521e+01 7.950000e+00
    endloop
  endfacet
  facet normal 7.071068e-01 -7.071068e-01 0.000000e+00
    outer loop
      vertex   -2.540000e-01 5.090521e+01 7.950000e+00
      vertex   2.434790e+00 5.359400e+01 6.350000e+00
      vertex   2.434790e+00 5.359400e+01 7.950000e+00
    endloop
  endfacet
  facet normal 1.000000e+00 -3.702884e-17 3.469447e-16
    outer loop
      vertex   -2.540000e-01 4.191041e+01 6.350000e+00
      vertex   -2.540000e-01 5.090521e+01 6.350000e+00
      vertex   -2.540000e-01 4.191041e+01 7.950000e+00
    endloop
  endfacet
  facet normal 1.000000e+00 -9.874357e-17 4.385095e-31
    outer loop
      vertex   -2.540000e-01 4.191041e+01 7.950000e+00
      vertex   -2.540000e-01 5.090521e+01 6.350000e+00
      vertex   -2.540000e-01 5.090521e+01 7.950000e+00
    endloop
  endfacet
  facet normal -1.000000e+00 -1.579897e-15 0.000000e+00
    outer loop
      vertex   5.613400e+01 5.090521e+01 6.350000e+00
      vertex   5.613400e+01 4.191041e+01 6.350000e+00
      vertex   5.613400e+01 5.090521e+01 7.950000e+00
    endloop
  endfacet
  facet normal -1.000000e+00 -1.579897e-15 7.016153e-30
    outer loop
      vertex   5.613400e+01 5.090521e+01 7.950000e+00
      vertex   5.613400e+01 4.191041e+01 6.350000e+00
      vertex   5.613400e+01 4.191041e+01 7.950000e+00
    endloop
  endfacet
  facet normal 1.000000e+00 3.702884e-17 -1.027757e-32
    outer loop
      vertex   -2.540000e-01 2.434790e+00 6.350000e+00
      vertex   -2.540000e-01 1.142959e+01 6.350000e+00
      vertex   -2.540000e-01 2.434790e+00 7.950000e+00
    endloop
  endfacet
  facet normal 1.000000e+00 9.874357e-17 3.469447e-16
    outer loop
      vertex   -2.540000e-01 2.434790e+00 7.950000e+00
      vertex   -2.540000e-01 1.142959e+01 6.350000e+00
      vertex   -2.540000e-01 1.142959e+01 7.950000e+00
    endloop
  endfacet
  facet normal 7.071068e-01 7.071068e-01 -1.717289e-16
    outer loop
      vertex   2.434790e+00 -2.540000e-01 6.350000e+00
      vertex   -2.540000e-01 2.434790e+00 6.350000e+00
      vertex   2.434790e+00 -2.540000e-01 7.950000e+00
    endloop
  endfacet
  facet normal 7.071068e-01 7.071068e-01 -1.459851e-16
    outer loop
      vertex   2.434790e+00 -2.540000e-01 7.950000e+00
      vertex   -2.540000e-01 2.434790e+00 6.350000e+00
      vertex   -2.540000e-01 2.434790e+00 7.950000e+00
    endloop
  endfacet
  facet normal 3.264695e-18 1.000000e+00 -3.469447e-16
    outer loop
      vertex   5.344521e+01 -2.540000e-01 6.350000e+00
      vertex   2.434790e+00 -2.540000e-01 6.350000e+00
      vertex   5.344521e+01 -2.540000e-01 7.950000e+00
    endloop
  endfacet
  facet normal 0.000000e+00 1.000000e+00 -2.428613e-16
    outer loop
      vertex   5.344521e+01 -2.540000e-01 7.950000e+00
      vertex   2.434790e+00 -2.540000e-01 6.350000e+00
      vertex   2.434790e+00 -2.540000e-01 7.950000e+00
    endloop
  endfacet
  facet normal -7.071068e-01 7.071068e-01 -1.962616e-16
    outer loop
      vertex   5.613400e+01 2.434790e+00 6.350000e+00
      vertex   5.344521e+01 -2.540000e-01 6.350000e+00
      vertex   5.613400e+01 2.434790e+00 7.950000e+00
    endloop
  endfacet
  facet normal -7.071068e-01 7.071068e-01 -1.459851e-16
    outer loop
      vertex   5.613400e+01 2.434790e+00 7.950000e+00
      vertex   5.344521e+01 -2.540000e-01 6.350000e+00
      vertex   5.344521e+01 -2.540000e-01 7.950000e+00
    endloop
  endfacet
  facet normal -1.000000e+00 1.579897e-15 0.000000e+00
    outer loop
      vertex   5.613400e+01 1.142959e+01 6.350000e+00
      vertex   5.613400e+01 2.434790e+00 6.350000e+00
      vertex   5.613400e+01 1.142959e+01 7.950000e+00
    endloop
  endfacet
  facet normal -1.000000e+00 1.579897e-15 -1.754038e-30
    outer loop
      vertex   5.613400e+01 1.142959e+01 7.950000e+00
      vertex   5.613400e+01 2.434790e+00 6.350000e+00
      vertex   5.613400e+01 2.434790e+00 7.950000e+00
    endloop
  endfacet
  facet normal -1.000000e+00 0.000000e+00 0.000000e+00
    outer loop
      vertex   5.429250e+01 5.014244e+01 0.000000e+00
      vertex   5.429250e+01 4.191041e+01 0.000000e+00
      vertex   5.429250e+01 5.014244e+01 6.350000e+00
    endloop
  endfacet
  facet normal -1.000000e+00 -0.000000e+00 0.000000e+00
    outer loop
      vertex   5.429250e+01 5.014244e+01 6.350000e+00
      vertex   5.429250e+01 4.191041e+01 0.000000e+00
      vertex   5.429250e+01 4.191041e+01 6.350000e+00
    endloop
  endfacet
  facet normal -7.071068e-01 -7.071068e-01 0.000000e+00
    outer loop
      vertex   5.268244e+01 5.175250e+01 0.000000e+00
      vertex   5.429250e+01 5.014244e+01 0.000000e+00
      vertex   5.268244e+01 5.175250e+01 6.350000e+00
    endloop
  endfacet
  facet normal -7.071068e-01 -7.071068e-01 0.000000e+00
    outer loop
      vertex   5.268244e+01 5.175250e+01 6.350000e+00
      vertex   5.429250e+01 5.014244e+01 0.000000e+00
      vertex   5.429250e+01 5.014244e+01 6.350000e+00
    endloop
  endfacet
  facet normal 0.000000e+00 -1.000000e+00 0.000000e+00
    outer loop
      vertex   3.197564e+00 5.175250e+01 0.000000e+00
      vertex   5.268244e+01 5.175250e+01 0.000000e+00
      vertex   3.197564e+00 5.175250e+01 6.350000e+00
    endloop
  endfacet
  facet normal 0.000000e+00 -1.000000e+00 0.000000e+00
    outer loop
      vertex   3.197564e+00 5.175250e+01 6.350000e+00
      vertex   5.268244e+01 5.175250e+01 0.000000e+00
      vertex   5.268244e+01 5.175250e+01 6.350000e+00
    endloop
  endfacet
  facet normal 7.071068e-01 -7.071068e-01 3.956138e-16
    outer loop
      vertex   1.587500e+00 5.014244e+01 0.000000e+00
      vertex   3.197564e+00 5.175250e+01 0.000000e+00
      vertex   1.587500e+00 5.014244e+01 6.350000e+00
    endloop
  endfacet
  facet normal 7.071068e-01 -7.071068e-01 0.000000e+00
    outer loop
      vertex   1.587500e+00 5.014244e+01 6.350000e+00
      vertex   3.197564e+00 5.175250e+01 0.000000e+00
      vertex   3.197564e+00 5.175250e+01 6.350000e+00
    endloop
  endfacet
  facet normal 1.000000e+00 5.394654e-17 6.294178e-16
    outer loop
      vertex   1.587500e+00 4.191041e+01 0.000000e+00
      vertex   1.587500e+00 5.014244e+01 0.000000e+00
      vertex   1.587500e+00 4.191041e+01 6.350000e+00
    endloop
  endfacet
  facet normal 1.000000e+00 -0.000000e+00 5.594825e-16
    outer loop
      vertex   1.587500e+00 4.191041e+01 6.350000e+00
      vertex   1.587500e+00 5.014244e+01 0.000000e+00
      vertex   1.587500e+00 5.014244e+01 6.350000e+00
    endloop
  endfacet
  facet normal -0.000000e+00 -1.000000e+00 -0.000000e+00
    outer loop
      vertex   -2.540000e-01 4.191041e+01 7.950000e+00
      vertex   -2.082800e+00 4.191041e+01 7.950000e+00
      vertex   -2.540000e-01 4.191041e+01 6.350000e+00
    endloop
  endfacet
  facet normal 0.000000e+00 -1.000000e+00 0.000000e+00
    outer loop
      vertex   -2.540000e-01 4.191041e+01 6.350000e+00
      vertex   -2.082800e+00 4.191041e+01 7.950000e+00
      vertex   -3.175000e+00 4.191041e+01 6.857800e+00
    endloop
  endfacet
  facet normal -0.000000e+00 -1.000000e+00 0.000000e+00
    outer loop
      vertex   -2.540000e-01 4.191041e+01 6.350000e+00
      vertex   -3.175000e+00 4.191041e+01 6.857800e+00
      vertex   -3.175000e+00 4.191041e+01 0.000000e+00
    endloop
  endfacet
  facet normal 0.000000e+00 -1.000000e+00 0.000000e+00
    outer loop
      vertex   -3.175000e+00 4.191041e+01 0.000000e+00
      vertex   1.587500e+00 4.191041e+01 0.000000e+00
      vertex   -2.540000e-01 4.191041e+01 6.350000e+00
    endloop
  endfacet
  facet normal 0.000000e+00 -1.000000e+00 0.000000e+00
    outer loop
      vertex   -2.540000e-01 4.191041e+01 6.350000e+00
      vertex   1.587500e+00 4.191041e+01 0.000000e+00
      vertex   1.587500e+00 4.191041e+01 6.350000e+00
    endloop
  endfacet
  facet normal 0.000000e+00 0.000000e+00 1.000000e+00
    outer loop
      vertex   -2.540000e-01 4.191041e+01 6.350000e+00
      vertex   1.587500e+00 5.014244e+01 6.350000e+00
      vertex   -2.540000e-01 5.090521e+01 6.350000e+00
    endloop
  endfacet
  facet normal -0.000000e+00 0.000000e+00 1.000000e+00
    outer loop
      vertex   -2.540000e-01 5.090521e+01 6.350000e+00
      vertex   1.587500e+00 5.014244e+01 6.350000e+00
      vertex   3.197564e+00 5.175250e+01 6.350000e+00
    endloop
  endfacet
  facet normal 0.000000e+00 0.000000e+00 1.000000e+00
    outer loop
      vertex   -2.540000e-01 5.090521e+01 6.350000e+00
      vertex   3.197564e+00 5.175250e+01 6.350000e+00
      vertex   2.434790e+00 5.359400e+01 6.350000e+00
    endloop
  endfacet
  facet normal 0.000000e+00 0.000000e+00 1.000000e+00
    outer loop
      vertex   2.434790e+00 5.359400e+01 6.350000e+00
      vertex   3.197564e+00 5.175250e+01 6.350000e+00
      vertex   5.268244e+01 5.175250e+01 6.350000e+00
    endloop
  endfacet
  facet normal -0.000000e+00 0.000000e+00 1.000000e+00
    outer loop
      vertex   2.434790e+00 5.359400e+01 6.350000e+00
      vertex   5.268244e+01 5.175250e+01 6.350000e+00
      vertex   5.344521e+01 5.359400e+01 6.350000e+00
    endloop
  endfacet
  facet normal 0.000000e+00 0.000000e+00 1.000000e+00
    outer loop
      vertex   5.344521e+01 5.359400e+01 6.350000e+00
      vertex   5.268244e+01 5.175250e+01 6.350000e+00
      vertex   5.613400e+01 5.090521e+01 6.350000e+00
    endloop
  endfacet
  facet normal 0.000000e+00 0.000000e+00 1.000000e+00
    outer loop
      vertex   5.613400e+01 5.090521e+01 6.350000e+00
      vertex   5.268244e+01 5.175250e+01 6.350000e+00
      vertex   5.429250e+01 5.014244e+01 6.350000e+00
    endloop
  endfacet
  facet normal 0.000000e+00 0.000000e+00 1.000000e+00
    outer loop
      vertex   5.613400e+01 5.090521e+01 6.350000e+00
      vertex   5.429250e+01 5.014244e+01 6.350000e+00
      vertex   5.613400e+01 4.191041e+01 6.350000e+00
    endloop
  endfacet
  facet normal 0.000000e+00 0.000000e+00 1.000000e+00
    outer loop
      vertex   5.613400e+01 4.191041e+01 6.350000e+00
      vertex   5.429250e+01 5.014244e+01 6.350000e+00
      vertex   5.429250e+01 4.191041e+01 6.350000e+00
    endloop
  endfacet
  facet normal 0.000000e+00 0.000000e+00 1.000000e+00
    outer loop
      vertex   -2.540000e-01 4.191041e+01 6.350000e+00
      vertex   1.587500e+00 4.191041e+01 6.350000e+00
      vertex   1.587500e+00 5.014244e+01 6.350000e+00
    endloop
  endfacet
  facet normal 1.000000e+00 5.394654e-17 -0.000000e+00
    outer loop
      vertex   1.587500e+00 3.197564e+00 0.000000e+00
      vertex   1.587500e+00 1.142959e+01 0.000000e+00
      vertex   1.587500e+00 3.197564e+00 6.350000e+00
    endloop
  endfacet
  facet normal 1.000000e+00 5.394654e-17 0.000000e+00
    outer loop
      vertex   1.587500e+00 3.197564e+00 6.350000e+00
      vertex   1.587500e+00 1.142959e+01 0.000000e+00
      vertex   1.587500e+00 1.142959e+01 6.350000e+00
    endloop
  endfacet
  facet normal 7.071068e-01 7.071068e-01 4.945173e-17
    outer loop
      vertex   3.197564e+00 1.587500e+00 0.000000e+00
      vertex   1.587500e+00 3.197564e+00 0.000000e+00
      vertex   3.197564e+00 1.587500e+00 6.350000e+00
    endloop
  endfacet
  facet normal 7.071068e-01 7.071068e-01 0.000000e+00
    outer loop
      vertex   3.197564e+00 1.587500e+00 6.350000e+00
      vertex   1.587500e+00 3.197564e+00 0.000000e+00
      vertex   1.587500e+00 3.197564e+00 6.350000e+00
    endloop
  endfacet
  facet normal -4.487121e-18 1.000000e+00 0.000000e+00
    outer loop
      vertex   5.268244e+01 1.587500e+00 0.000000e+00
      vertex   3.197564e+00 1.587500e+00 0.000000e+00
      vertex   5.268244e+01 1.587500e+00 6.350000e+00
    endloop
  endfacet
  facet normal -4.487121e-18 1.000000e+00 0.000000e+00
    outer loop
      vertex   5.268244e+01 1.587500e+00 6.350000e+00
      vertex   3.197564e+00 1.587500e+00 0.000000e+00
      vertex   3.197564e+00 1.587500e+00 6.350000e+00
    endloop
  endfacet
  facet normal -7.071068e-01 7.071068e-01 0.000000e+00
    outer loop
      vertex   5.429250e+01 3.197564e+00 0.000000e+00
      vertex   5.268244e+01 1.587500e+00 0.000000e+00
      vertex   5.429250e+01 3.197564e+00 6.350000e+00
    endloop
  endfacet
  facet normal -7.071068e-01 7.071068e-01 0.000000e+00
    outer loop
      vertex   5.429250e+01 3.197564e+00 6.350000e+00
      vertex   5.268244e+01 1.587500e+00 0.000000e+00
      vertex   5.268244e+01 1.587500e+00 6.350000e+00
    endloop
  endfacet
  facet normal -1.000000e+00 0.000000e+00 0.000000e+00
    outer loop
      vertex   5.429250e+01 1.142959e+01 0.000000e+00
      vertex   5.429250e+01 3.197564e+00 0.000000e+00
      vertex   5.429250e+01 1.142959e+01 6.350000e+00
    endloop
  endfacet
  facet normal -1.000000e+00 -0.000000e+00 0.000000e+00
    outer loop
      vertex   5.429250e+01 1.142959e+01 6.350000e+00
      vertex   5.429250e+01 3.197564e+00 0.000000e+00
      vertex   5.429250e+01 3.197564e+00 6.350000e+00
    endloop
  endfacet
  facet normal -0.000000e+00 1.000000e+00 0.000000e+00
    outer loop
      vertex   5.613400e+01 1.142959e+01 7.950000e+00
      vertex   5.796280e+01 1.142959e+01 7.950000e+00
      vertex   5.613400e+01 1.142959e+01 6.350000e+00
    endloop
  endfacet
  facet normal 0.000000e+00 1.000000e+00 0.000000e+00
    outer loop
      vertex   5.613400e+01 1.142959e+01 6.350000e+00
      vertex   5.796280e+01 1.142959e+01 7.950000e+00
      vertex   5.905500e+01 1.142959e+01 6.857800e+00
    endloop
  endfacet
  facet normal -0.000000e+00 1.000000e+00 0.000000e+00
    outer loop
      vertex   5.613400e+01 1.142959e+01 6.350000e+00
      vertex   5.905500e+01 1.142959e+01 6.857800e+00
      vertex   5.905500e+01 1.142959e+01 0.000000e+00
    endloop
  endfacet
  facet normal 0.000000e+00 1.000000e+00 0.000000e+00
    outer loop
      vertex   5.905500e+01 1.142959e+01 0.000000e+00
      vertex   5.429250e+01 1.142959e+01 0.000000e+00
      vertex   5.613400e+01 1.142959e+01 6.350000e+00
    endloop
  endfacet
  facet normal 0.000000e+00 1.000000e+00 0.000000e+00
    outer loop
      vertex   5.613400e+01 1.142959e+01 6.350000e+00
      vertex   5.429250e+01 1.142959e+01 0.000000e+00
      vertex   5.429250e+01 1.142959e+01 6.350000e+00
    endloop
  endfacet
  facet normal 0.000000e+00 0.000000e+00 1.000000e+00
    outer loop
      vertex   5.613400e+01 1.142959e+01 6.350000e+00
      vertex   5.429250e+01 3.197564e+00 6.350000e+00
      vertex   5.613400e+01 2.434790e+00 6.350000e+00
    endloop
  endfacet
  facet normal 0.000000e+00 0.000000e+00 1.000000e+00
    outer loop
      vertex   5.613400e+01 2.434790e+00 6.350000e+00
      vertex   5.429250e+01 3.197564e+00 6.350000e+00
      vertex   5.268244e+01 1.587500e+00 6.350000e+00
    endloop
  endfacet
  facet normal 0.000000e+00 0.000000e+00 1.000000e+00
    outer loop
      vertex   5.613400e+01 2.434790e+00 6.350000e+00
      vertex   5.268244e+01 1.587500e+00 6.350000e+00
      vertex   5.344521e+01 -2.540000e-01 6.350000e+00
    endloop
  endfacet
  facet normal 0.000000e+00 0.000000e+00 1.000000e+00
    outer loop
      vertex   5.344521e+01 -2.540000e-01 6.350000e+00
      vertex   5.268244e+01 1.587500e+00 6.350000e+00
      vertex   3.197564e+00 1.587500e+00 6.350000e+00
    endloop
  endfacet
  facet normal 0.000000e+00 0.000000e+00 1.000000e+00
    outer loop
      vertex   5.344521e+01 -2.540000e-01 6.350000e+00
      vertex   3.197564e+00 1.587500e+00 6.350000e+00
      vertex   2.434790e+00 -2.540000e-01 6.350000e+00
    endloop
  endfacet
  facet normal 0.000000e+00 -0.000000e+00 1.000000e+00
    outer loop
      vertex   2.434790e+00 -2.540000e-01 6.350000e+00
      vertex   3.197564e+00 1.587500e+00 6.350000e+00
      vertex   -2.540000e-01 2.434790e+00 6.350000e+00
    endloop
  endfacet
  facet normal -0.000000e+00 0.000000e+00 1.000000e+00
    outer loop
      vertex   -2.540000e-01 2.434790e+00 6.350000e+00
      vertex   3.197564e+00 1.587500e+00 6.350000e+00
      vertex   1.587500e+00 3.197564e+00 6.350000e+00
    endloop
  endfacet
  facet normal 0.000000e+00 -0.000000e+00 1.000000e+00
    outer loop
      vertex   -2.540000e-01 2.434790e+00 6.350000e+00
      vertex   1.587500e+00 3.197564e+00 6.350000e+00
      vertex   -2.540000e-01 1.142959e+01 6.350000e+00
    endloop
  endfacet
  facet normal -0.000000e+00 0.000000e+00 1.000000e+00
    outer loop
      vertex   -2.540000e-01 1.142959e+01 6.350000e+00
      vertex   1.587500e+00 3.197564e+00 6.350000e+00
      vertex   1.587500e+00 1.142959e+01 6.350000e+00
    endloop
  endfacet
  facet normal 0.000000e+00 0.000000e+00 1.000000e+00
    outer loop
      vertex   5.613400e+01 1.142959e+01 6.350000e+00
      vertex   5.429250e+01 1.142959e+01 6.350000e+00
      vertex   5.429250e+01 3.197564e+00 6.350000e+00
    endloop
  endfacet
  facet normal 0.000000e+00 1.000000e+00 -0.000000e+00
    outer loop
      vertex   5.465513e+01 5.651500e+01 -8.763000e-01
      vertex   1.224872e+00 5.651500e+01 -8.763000e-01
      vertex   5.465513e+01 5.651500e+01 6.857800e+00
    endloop
  endfacet
  facet normal 0.000000e+00 1.000000e+00 0.000000e+00
    outer loop
      vertex   5.465513e+01 5.651500e+01 6.857800e+00
      vertex   1.224872e+00 5.651500e+01 -8.763000e-01
      vertex   1.224872e+00 5.651500e+01 6.857800e+00
    endloop
  endfacet
  facet normal -7.071068e-01 7.071068e-01 0.000000e+00
    outer loop
      vertex   1.224872e+00 5.651500e+01 -8.763000e-01
      vertex   -3.175000e+00 5.211513e+01 -8.763000e-01
      vertex   1.224872e+00 5.651500e+01 6.857800e+00
    endloop
  endfacet
  facet normal -7.071068e-01 7.071068e-01 0.000000e+00
    outer loop
      vertex   1.224872e+00 5.651500e+01 6.857800e+00
      vertex   -3.175000e+00 5.211513e+01 -8.763000e-01
      vertex   -3.175000e+00 5.211513e+01 6.857800e+00
    endloop
  endfacet
  facet normal -1.000000e+00 1.305541e-16 0.000000e+00
    outer loop
      vertex   -3.175000e+00 5.211513e+01 6.857800e+00
      vertex   -3.175000e+00 5.211513e+01 -8.763000e-01
      vertex   -3.175000e+00 4.191041e+01 0.000000e+00
    endloop
  endfacet
  facet normal -1.000000e+00 6.108487e-17 -8.089855e-16
    outer loop
      vertex   -3.175000e+00 4.191041e+01 0.000000e+00
      vertex   -3.175000e+00 5.211513e+01 -8.763000e-01
      vertex   -3.175000e+00 1.224872e+00 -8.763000e-01
    endloop
  endfacet
  facet normal -1.000000e+00 8.741677e-17 -2.031544e-15
    outer loop
      vertex   -3.175000e+00 4.191041e+01 0.000000e+00
      vertex   -3.175000e+00 1.224872e+00 -8.763000e-01
      vertex   -3.175000e+00 1.142959e+01 0.000000e+00
    endloop
  endfacet
  facet normal -1.000000e+00 -8.703608e-17 0.000000e+00
    outer loop
      vertex   -3.175000e+00 1.142959e+01 0.000000e+00
      vertex   -3.175000e+00 1.224872e+00 -8.763000e-01
      vertex   -3.175000e+00 1.224872e+00 6.857800e+00
    endloop
  endfacet
  facet normal -1.000000e+00 -8.703608e-17 0.000000e+00
    outer loop
      vertex   -3.175000e+00 1.142959e+01 0.000000e+00
      vertex   -3.175000e+00 1.224872e+00 6.857800e+00
      vertex   -3.175000e+00 1.142959e+01 6.857800e+00
    endloop
  endfacet
  facet normal -1.000000e+00 1.305541e-16 0.000000e+00
    outer loop
      vertex   -3.175000e+00 4.191041e+01 0.000000e+00
      vertex   -3.175000e+00 4.191041e+01 6.857800e+00
      vertex   -3.175000e+00 5.211513e+01 6.857800e+00
    endloop
  endfacet
  facet normal -7.071068e-01 -7.071068e-01 0.000000e+00
    outer loop
      vertex   -3.175000e+00 1.224872e+00 -8.763000e-01
      vertex   1.224872e+00 -3.175000e+00 -8.763000e-01
      vertex   -3.175000e+00 1.224872e+00 6.857800e+00
    endloop
  endfacet
  facet normal -7.071068e-01 -7.071068e-01 0.000000e+00
    outer loop
      vertex   -3.175000e+00 1.224872e+00 6.857800e+00
      vertex   1.224872e+00 -3.175000e+00 -8.763000e-01
      vertex   1.224872e+00 -3.175000e+00 6.857800e+00
    endloop
  endfacet
  facet normal -0.000000e+00 0.000000e+00 1.000000e+00
    outer loop
      vertex   -3.175000e+00 4.191041e+01 0.000000e+00
      vertex   1.587500e+00 1.142959e+01 0.000000e+00
      vertex   1.587500e+00 4.191041e+01 0.000000e+00
    endloop
  endfacet
  facet normal 0.000000e+00 0.000000e+00 1.000000e+00
    outer loop
      vertex   1.587500e+00 4.191041e+01 0.000000e+00
      vertex   1.587500e+00 1.142959e+01 0.000000e+00
      vertex   5.429250e+01 1.142959e+01 0.000000e+00
    endloop
  endfacet
  facet normal 0.000000e+00 0.000000e+00 1.000000e+00
    outer loop
      vertex   1.587500e+00 4.191041e+01 0.000000e+00
      vertex   5.429250e+01 1.142959e+01 0.000000e+00
      vertex   5.429250e+01 4.191041e+01 0.000000e+00
    endloop
  endfacet
  facet normal 0.000000e+00 0.000000e+00 1.000000e+00
    outer loop
      vertex   5.429250e+01 4.191041e+01 0.000000e+00
      vertex   5.429250e+01 1.142959e+01 0.000000e+00
      vertex   5.905500e+01 1.142959e+01 0.000000e+00
    endloop
  endfacet
  facet normal -0.000000e+00 0.000000e+00 1.000000e+00
    outer loop
      vertex   5.429250e+01 4.191041e+01 0.000000e+00
      vertex   5.905500e+01 1.142959e+01 0.000000e+00
      vertex   5.905500e+01 4.191041e+01 0.000000e+00
    endloop
  endfacet
  facet normal 0.000000e+00 0.000000e+00 1.000000e+00
    outer loop
      vertex   -3.175000e+00 4.191041e+01 0.000000e+00
      vertex   -3.175000e+00 1.142959e+01 0.000000e+00
      vertex   1.587500e+00 1.142959e+01 0.000000e+00
    endloop
  endfacet
  facet normal -0.000000e+00 -0.000000e+00 1.000000e+00
    outer loop
      vertex   1.587500e+00 3.197564e+00 0.000000e+00
      vertex   3.197564e+00 1.587500e+00 0.000000e+00
      vertex   1.587500e+00 1.142959e+01 0.000000e+00
    endloop
  endfacet
  facet normal 0.000000e+00 0.000000e+00 1.000000e+00
    outer loop
      vertex   1.587500e+00 1.142959e+01 0.000000e+00
      vertex   3.197564e+00 1.587500e+00 0.000000e+00
      vertex   5.268244e+01 1.587500e+00 0.000000e+00
    endloop
  endfacet
  facet normal -0.000000e+00 0.000000e+00 1.000000e+00
    outer loop
      vertex   1.587500e+00 1.142959e+01 0.000000e+00
      vertex   5.268244e+01 1.587500e+00 0.000000e+00
      vertex   5.429250e+01 1.142959e+01 0.000000e+00
    endloop
  endfacet
  facet normal 0.000000e+00 0.000000e+00 1.000000e+00
    outer loop
      vertex   5.429250e+01 1.142959e+01 0.000000e+00
      vertex   5.268244e+01 1.587500e+00 0.000000e+00
      vertex   5.429250e+01 3.197564e+00 0.000000e+00
    endloop
  endfacet
  facet normal 0.000000e+00 0.000000e+00 1.000000e+00
    outer loop
      vertex   5.429250e+01 5.014244e+01 0.000000e+00
      vertex   5.268244e+01 5.175250e+01 0.000000e+00
      vertex   5.429250e+01 4.191041e+01 0.000000e+00
    endloop
  endfacet
  facet normal 0.000000e+00 0.000000e+00 1.000000e+00
    outer loop
      vertex   5.429250e+01 4.191041e+01 0.000000e+00
      vertex   5.268244e+01 5.175250e+01 0.000000e+00
      vertex   3.197564e+00 5.175250e+01 0.000000e+00
    endloop
  endfacet
  facet normal 0.000000e+00 0.000000e+00 1.000000e+00
    outer loop
      vertex   5.429250e+01 4.191041e+01 0.000000e+00
      vertex   3.197564e+00 5.175250e+01 0.000000e+00
      vertex   1.587500e+00 4.191041e+01 0.000000e+00
    endloop
  endfacet
  facet normal 0.000000e+00 -0.000000e+00 1.000000e+00
    outer loop
      vertex   1.587500e+00 4.191041e+01 0.000000e+00
      vertex   3.197564e+00 5.175250e+01 0.000000e+00
      vertex   1.587500e+00 5.014244e+01 0.000000e+00
    endloop
  endfacet
endsolid
